<svg width="22" height="22" viewBox="0 0 22 22" fill="none" xmlns="http://www.w3.org/2000/svg">
<path fill-rule="evenodd" clip-rule="evenodd" d="M19.6829 9.924C19.5699 10.552 19.0129 11.013 18.3529 11.001H16.6829V2.001H18.3709C19.0129 1.952 19.5689 2.448 19.6829 3.077V9.924ZM14.6829 11.788L11.0749 19.906C10.2679 19.648 9.68294 18.891 9.68294 18.001V14.001C9.68294 13.448 9.23494 13.001 8.68294 13.001H3.01394C2.96794 12.998 2.90694 12.999 2.84994 12.99C2.30494 12.907 1.92894 12.396 2.01094 11.852L3.39194 2.851C3.46594 2.361 3.91794 2.022 4.40294 2.001H14.6829V11.788ZM21.6739 2.866C21.4519 1.223 20.0469 0 18.4109 0C18.3919 0 18.3719 0 18.3529 0.001H4.41394C2.92694 0.011 1.63694 1.081 1.41494 2.549L0.0339373 11.551C-0.213063 13.186 0.914937 14.718 2.54694 14.966C2.70694 14.991 2.86994 15.003 3.02294 15.001H7.68294V18.001C7.68294 20.207 9.47694 22.001 11.6829 22.001C12.0789 22.001 12.4359 21.768 12.5969 21.407L16.3319 13.001H18.3349C20.0049 13.006 21.4489 11.798 21.6739 10.135C21.6799 10.091 21.6829 10.046 21.6829 10.001V3.001C21.6829 2.956 21.6799 2.911 21.6739 2.866Z" fill="#313037"/>
</svg>
